<svg xmlns="http://www.w3.org/2000/svg" viewBox="0 0 234.26 147.22"><defs><style>.cls-1{isolation:isolate;}.cls-2{fill:#8c5e31;}.cls-3{fill:#7a4c1e;}.cls-4{fill:#a67d4f;}.cls-5,.cls-7{fill:#cb7d3b;}.cls-13,.cls-14,.cls-6,.cls-7{opacity:0.5;}.cls-10,.cls-11,.cls-6,.cls-7{mix-blend-mode:multiply;}.cls-10,.cls-14,.cls-8{fill:#c0c3ca;}.cls-9{fill:#76787c;}.cls-12{fill:#fff;}.cls-14{mix-blend-mode:screen;}.cls-15{fill:#c00000;}</style></defs><g class="cls-1"><g id="Layer_1" data-name="Layer 1"><rect class="cls-2" x="8.78" y="111.91" width="216.67" height="30.8"/><path class="cls-3" d="M225.6,142.86H8.63v-31.1h217Zm-216.67-.3H225.3v-30.5H8.93Z"/><rect class="cls-4" x="4.98" y="109.71" width="224.06" height="2.2"/><path class="cls-3" d="M229.2,112.06H4.83v-2.5H229.2Zm-224.07-.3H228.9v-1.9H5.13Z"/><polygon class="cls-5" points="229.05 109.71 4.98 109.71 30.17 86.92 204.46 86.92 229.05 109.71"/><path class="cls-3" d="M229.43,109.86H4.59L30.11,86.77H204.52l0,0Zm-224.06-.3H228.66L204.4,87.08H30.23Z"/><g class="cls-6"><path class="cls-5" d="M213.76,109.71h15.29L204.46,86.92H30.17L5,109.71H20.2c10.17-6.85,37.18-19.89,95.31-19.89C175.93,89.82,204,103.37,213.76,109.71Z"/></g><g class="cls-6"><rect class="cls-2" x="8.78" y="111.91" width="216.67" height="4.9"/><path class="cls-3" d="M225.6,117H8.63v-5.19h217Zm-216.67-.3H225.3v-4.59H8.93Z"/></g><path class="cls-7" d="M194.07,92.94c-6,0-11,1.48-12.68,3.53H60c-1.67-2-6.72-3.53-12.68-3.53C40,92.94,34,95.18,34,97.94s5.94,5,13.27,5,13.27-2.24,13.27-5a1.94,1.94,0,0,0,0-.24H180.82a1.94,1.94,0,0,0,0,.24c0,2.76,5.94,5,13.27,5s13.27-2.24,13.27-5S201.4,92.94,194.07,92.94Z"/><path class="cls-7" d="M122,99.87c0,1-3.23,1.9-7.21,1.9s-7.21-.85-7.21-1.9S110.76,98,114.74,98,122,98.81,122,99.87Z"/><path class="cls-8" d="M53.84,94.38c-2.05-1.22-5.77-2-10-2s-8,.82-10,2H32.12v2.18c0,2.32,5.24,4.21,11.7,4.21s11.7-1.89,11.7-4.21V94.38Z"/><path class="cls-9" d="M43.82,101c-6.68,0-11.91-1.94-11.91-4.42V94.17h1.83c2.18-1.28,5.94-2,10.08-2s7.89.75,10.07,2h1.83v2.39C55.72,99,50.5,101,43.82,101ZM32.33,94.59v2c0,2.17,5.26,4,11.49,4s11.49-1.83,11.49-4v-2H53.78l-.05,0c-2.08-1.24-5.88-2-9.91-2s-7.84.77-9.91,2l0,0Z"/><path class="cls-10" d="M35,93.78a10.09,10.09,0,0,0-1.23.6H32.12v2.18c0,1.06,1.1,2,2.91,2.78Z"/><path class="cls-10" d="M53.84,94.38a15.39,15.39,0,0,0-5.06-1.64v7.63c4-.67,6.74-2.12,6.74-3.81V94.38Z"/><path class="cls-8" d="M55.52,94.38c0,2.33-5.24,4.21-11.7,4.21s-11.7-1.88-11.7-4.21,5.24-4.21,11.7-4.21S55.52,92.05,55.52,94.38Z"/><path class="cls-9" d="M43.82,98.8c-6.68,0-11.91-1.94-11.91-4.42S37.14,90,43.82,90s11.9,1.94,11.9,4.42S50.5,98.8,43.82,98.8Zm0-8.42c-6.23,0-11.49,1.83-11.49,4s5.26,4,11.49,4,11.49-1.83,11.49-4S50.05,90.38,43.82,90.38Z"/><g class="cls-11"><path class="cls-8" d="M43.82,90.17a29.69,29.69,0,0,0-5.38.47c1.18.08,2.07.38,2.07,1.1,0,2.08,3.86,2.92,6.58,1.67l6.06,1.77s-4,4.18-17.55,2.19h0a25.36,25.36,0,0,0,8.24,1.22c6.46,0,11.7-1.88,11.7-4.21S50.28,90.17,43.82,90.17Z"/></g><path class="cls-8" d="M46.08,89.51a4.47,4.47,0,0,0-4.26,0h-.35v2.54c0,.61,1.11,1.11,2.48,1.11s2.48-.5,2.48-1.11V89.51Z"/><path class="cls-9" d="M44,93.37c-1.54,0-2.69-.57-2.69-1.32V89.3h.5a4.79,4.79,0,0,1,4.38,0h.5v2.75C46.64,92.8,45.49,93.37,44,93.37Zm-2.28-3.65v2.33c0,.42.94.9,2.28.9s2.28-.48,2.28-.9V89.72H46l-.06,0a4.33,4.33,0,0,0-4,0l-.06,0Z"/><path class="cls-10" d="M42.22,89.29a2.48,2.48,0,0,0-.4.22h-.35v2.54c0,.31.29.59.75.79Z"/><path class="cls-10" d="M46.08,89.51a2.68,2.68,0,0,0-1-.41V93c.82-.18,1.37-.56,1.37-1V89.51Z"/><path class="cls-8" d="M46.43,89.51c0,.61-1.11,1.11-2.48,1.11s-2.48-.5-2.48-1.11S42.58,88.4,44,88.4,46.43,88.9,46.43,89.51Z"/><path class="cls-9" d="M44,90.83c-1.54,0-2.69-.57-2.69-1.32s1.15-1.32,2.69-1.32,2.69.57,2.69,1.32S45.49,90.83,44,90.83Zm0-2.22c-1.34,0-2.28.47-2.28.9s.94.9,2.28.9,2.28-.47,2.28-.9S45.29,88.61,44,88.61Z"/><path class="cls-10" d="M46.43,89.51c0,.61-1.11,1.11-2.48,1.11s-2.48-.5-2.48-1.11S42.58,88.4,44,88.4,46.43,88.9,46.43,89.51Z"/><path class="cls-12" d="M34.56,92.33a3.27,3.27,0,0,0-.62.4,2.61,2.61,0,0,0-.57.61,1.33,1.33,0,0,0-.2,1,1.21,1.21,0,0,0,.22.54,2.39,2.39,0,0,0,.46.43,7.24,7.24,0,0,0,1.27.67,16.41,16.41,0,0,0,3,.85,27.12,27.12,0,0,0,3.14.38c1,.06,2,.08,2.77,0s1.49-.07,2-.11l.75-.07-.73.15a19.46,19.46,0,0,1-2,.26,24.64,24.64,0,0,1-2.81.09,22.62,22.62,0,0,1-3.2-.34A14.12,14.12,0,0,1,35,96.3a6.16,6.16,0,0,1-1.3-.76,2.3,2.3,0,0,1-.5-.53,1.55,1.55,0,0,1-.23-.64,1.44,1.44,0,0,1,.3-1.11,2.46,2.46,0,0,1,.65-.59,3.83,3.83,0,0,1,.49-.27Z"/><path class="cls-8" d="M199.64,94.38c-2-1.22-5.77-2-10-2s-8,.82-10,2h-1.68v2.18c0,2.32,5.24,4.21,11.7,4.21s11.7-1.89,11.7-4.21V94.38Z"/><path class="cls-9" d="M189.62,101c-6.68,0-11.91-1.94-11.91-4.42V94.17h1.83c2.18-1.28,5.94-2,10.08-2s7.9.75,10.08,2h1.83v2.39C201.53,99,196.29,101,189.62,101Zm-11.49-6.39v2c0,2.17,5.26,4,11.49,4s11.49-1.83,11.49-4v-2h-1.53l-.05,0c-2.07-1.24-5.87-2-9.91-2s-7.83.77-9.91,2l-.05,0Z"/><path class="cls-10" d="M180.84,93.78a10.27,10.27,0,0,0-1.24.6h-1.68v2.18c0,1.06,1.1,2,2.92,2.78Z"/><path class="cls-10" d="M199.64,94.38a15.39,15.39,0,0,0-5.06-1.64v7.63c4-.67,6.74-2.12,6.74-3.81V94.38Z"/><path class="cls-8" d="M201.32,94.38c0,2.33-5.24,4.21-11.7,4.21s-11.7-1.88-11.7-4.21,5.24-4.21,11.7-4.21S201.32,92.05,201.32,94.38Z"/><path class="cls-9" d="M189.62,98.8c-6.68,0-11.91-1.94-11.91-4.42S182.94,90,189.62,90s11.91,1.94,11.91,4.42S196.29,98.8,189.62,98.8Zm0-8.42c-6.23,0-11.49,1.83-11.49,4s5.26,4,11.49,4,11.49-1.83,11.49-4S195.85,90.38,189.62,90.38Z"/><g class="cls-11"><path class="cls-8" d="M189.62,90.17a29.49,29.49,0,0,0-5.37.47c1.17.08,2.06.38,2.06,1.1,0,2.08,3.87,2.92,6.58,1.67L199,95.18s-4,4.18-17.54,2.19h0a25.25,25.25,0,0,0,8.23,1.22c6.46,0,11.7-1.88,11.7-4.21S196.08,90.17,189.62,90.17Z"/></g><path class="cls-8" d="M191.88,89.51a4.47,4.47,0,0,0-4.26,0h-.35v2.54c0,.61,1.11,1.11,2.48,1.11s2.49-.5,2.49-1.11V89.51Z"/><path class="cls-9" d="M189.75,93.37c-1.54,0-2.69-.57-2.69-1.32V89.3h.5a4.81,4.81,0,0,1,4.39,0h.49v2.75C192.44,92.8,191.29,93.37,189.75,93.37Zm-2.27-3.65v2.33c0,.42.93.9,2.27.9s2.28-.48,2.28-.9V89.72h-.22l-.05,0a4.35,4.35,0,0,0-4,0l-.06,0Z"/><path class="cls-10" d="M188,89.29a3,3,0,0,0-.4.22h-.35v2.54c0,.31.28.59.75.79Z"/><path class="cls-10" d="M191.88,89.51a2.63,2.63,0,0,0-1-.41V93c.81-.18,1.37-.56,1.37-1V89.51Z"/><path class="cls-8" d="M192.24,89.51c0,.61-1.12,1.11-2.49,1.11s-2.48-.5-2.48-1.11,1.11-1.11,2.48-1.11S192.24,88.9,192.24,89.51Z"/><path class="cls-9" d="M189.75,90.83c-1.54,0-2.69-.57-2.69-1.32s1.15-1.32,2.69-1.32,2.69.57,2.69,1.32S191.29,90.83,189.75,90.83Zm0-2.22c-1.34,0-2.27.47-2.27.9s.93.9,2.27.9,2.28-.47,2.28-.9S191.09,88.61,189.75,88.61Z"/><path class="cls-10" d="M192.24,89.51c0,.61-1.12,1.11-2.49,1.11s-2.48-.5-2.48-1.11,1.11-1.11,2.48-1.11S192.24,88.9,192.24,89.51Z"/><path class="cls-12" d="M180.37,92.33a3.49,3.49,0,0,0-.63.4,2.61,2.61,0,0,0-.57.61,1.33,1.33,0,0,0-.2,1,1.23,1.23,0,0,0,.23.54,1.92,1.92,0,0,0,.46.43,6.81,6.81,0,0,0,1.26.67,16.64,16.64,0,0,0,3,.85,27.12,27.12,0,0,0,3.14.38c1,.06,2,.08,2.78,0s1.49-.07,2-.11l.75-.07-.74.15a19.46,19.46,0,0,1-2,.26,24.64,24.64,0,0,1-2.81.09,22.62,22.62,0,0,1-3.2-.34,14.12,14.12,0,0,1-3.1-.93,6.42,6.42,0,0,1-1.3-.76A2.3,2.3,0,0,1,179,95a1.55,1.55,0,0,1-.23-.64,1.48,1.48,0,0,1,.3-1.11,2.46,2.46,0,0,1,.65-.59,3.81,3.81,0,0,1,.5-.27Z"/><path class="cls-8" d="M189.65,89.33c-.69,0-1.26-.14-1.26-.83V17.05c0-6.3-.77-7.65-9-7.65H54.19c-8.21,0-9,1.35-9,7.65V88.5c0,.69-.56.83-1.25.83s-1.25-.14-1.25-.83V17.05c0-3.78.34-6.29,2.11-8s4.29-2.19,9.38-2.19H179.41c9.83,0,11.49,2.54,11.49,10.16V88.5C190.9,89.19,190.34,89.33,189.65,89.33Z"/><path class="cls-9" d="M189.65,89.54c-.4,0-1.47,0-1.47-1V17.05c0-6.23-.7-7.45-8.77-7.45H54.19c-8.08,0-8.78,1.22-8.78,7.45V88.5c0,1-1.06,1-1.46,1s-1.46,0-1.46-1V17.05c0-3.83.35-6.39,2.18-8.12S49,6.68,54.19,6.68H179.41c9.93,0,11.7,2.72,11.7,10.37V88.5C191.11,89.54,190.05,89.54,189.65,89.54ZM54.19,9.19H179.41c8.35,0,9.19,1.49,9.19,7.86V88.5c0,.38.18.62,1.05.62s1-.24,1-.62V17.05c0-8.58-2.68-10-11.28-10H54.19c-5,0-7.62.59-9.23,2.13s-2.05,4.1-2.05,7.82V88.5c0,.38.17.62,1,.62s1-.24,1-.62V17.05C45,10.68,45.84,9.19,54.19,9.19Z"/><g class="cls-11"><path class="cls-10" d="M190.9,88.5V17.05c0-3.17-.29-5.47-1.34-7.06-1.68-1.41-4.5-2-9.16-2H55.19c-5.09,0-7.72.62-9.38,2.19s-2.11,4.2-2.11,8V89.32H44c.69,0,1.25-.14,1.25-.83V17.05c0-6.3.78-7.65,9-7.65H179.41c5,0,7.23.5,8.22,2.31,1.53,1.08,1.76,3,1.76,6.47V89.32h.26C190.34,89.33,190.9,89.19,190.9,88.5Z"/></g><path class="cls-12" d="M43,80a.21.21,0,0,1-.21-.21V17.05c0-5.3.73-10.06,9.56-10.06H178.42a.2.2,0,0,1,.2.21.2.2,0,0,1-.2.2H52.36c-8.45,0-9.14,4.38-9.14,9.65V79.77A.21.21,0,0,1,43,80Z"/><g class="cls-13"><path class="cls-8" d="M74.83,56.25A7.69,7.69,0,1,1,75,45.38,7.69,7.69,0,0,1,74.83,56.25Z"/><path class="cls-9" d="M69.48,58.63A7.9,7.9,0,1,1,75,56.4,7.86,7.86,0,0,1,69.48,58.63Zm0-15.37a7.48,7.48,0,1,0,5.37,2.27A7.43,7.43,0,0,0,69.47,43.26Z"/><g class="cls-11"><path class="cls-8" d="M64.86,55.21A7.7,7.7,0,0,1,64.6,44.8a4.81,4.81,0,0,0-.48.42,7.69,7.69,0,1,0,10.71,11c.15-.15.29-.3.43-.46A7.7,7.7,0,0,1,64.86,55.21Z"/></g><path class="cls-10" d="M74.83,56.25c-3,3-13.76-8.08-10.71-11a7.69,7.69,0,1,1,10.71,11Z"/><path class="cls-14" d="M73.56,54.24a6,6,0,1,1,.13-8.51A6,6,0,0,1,73.56,54.24Z"/><path class="cls-12" d="M73.69,45.73a6,6,0,0,0-3.81-1.79c-.25.44-.51.88-.77,1.32a6,6,0,0,1,3.67,1.79,6,6,0,0,1,1,6.9A6,6,0,0,0,73.69,45.73Z"/><path class="cls-12" d="M68.31,45.23c.26-.43.52-.87.77-1.31a6,6,0,0,0-3.9,1.69A5.83,5.83,0,0,0,64,47.21l.26-.29A6.08,6.08,0,0,1,68.31,45.23Z"/><path class="cls-8" d="M74.54,45.82a.31.31,0,0,1,0-.44l36.32-35.23a.31.31,0,0,1,.44,0,.31.31,0,0,1,0,.44L75,45.83A.31.31,0,0,1,74.54,45.82Z"/><path class="cls-9" d="M74.76,46.12a.51.51,0,0,1-.37-.15.54.54,0,0,1-.15-.38.48.48,0,0,1,.16-.36L110.71,10a.52.52,0,0,1,.88.39.49.49,0,0,1-.15.36L75.13,46A.55.55,0,0,1,74.76,46.12Zm36.31-35.85a.11.11,0,0,0-.07,0L74.69,45.53a.11.11,0,0,0,0,.07.13.13,0,0,0,0,.08c.07.07.11,0,.14,0l36.32-35.23a.09.09,0,0,0,0-.07.11.11,0,0,0,0-.07A.12.12,0,0,0,111.07,10.27Z"/><path class="cls-8" d="M75.87,46.05a.37.37,0,0,1-.53,0l-1-1a.39.39,0,0,1,0-.54h0a.36.36,0,0,1,.52,0l1,1a.37.37,0,0,1,0,.52Z"/><path class="cls-9" d="M75.61,46.37a.54.54,0,0,1-.42-.18l-1-1a.58.58,0,1,1,.84-.81l1,1a.62.62,0,0,1,.16.41.56.56,0,0,1-.18.42A.59.59,0,0,1,75.61,46.37Zm-1-1.78a.21.21,0,0,0-.11,0,.17.17,0,0,0,0,.24l1,1a.16.16,0,0,0,.23,0,.18.18,0,0,0,0-.12.15.15,0,0,0,0-.12l-1-1A.21.21,0,0,0,74.6,44.59Z"/><path class="cls-8" d="M76.11,45.41a.27.27,0,0,1-.39,0L75,44.65a.27.27,0,0,1,0-.39h0a.27.27,0,0,1,.38,0l.74.76a.28.28,0,0,1,0,.39Z"/><path class="cls-9" d="M75.92,45.7a.49.49,0,0,1-.35-.15l-.73-.76a.48.48,0,0,1-.14-.34.53.53,0,0,1,.15-.34.5.5,0,0,1,.68,0l.74.76a.49.49,0,0,1,0,.68A.48.48,0,0,1,75.92,45.7Zm-.73-1.31a.08.08,0,0,0,0,0,.08.08,0,0,0,0,0s0,0,0,0l.73.76a.06.06,0,0,0,.1,0,.08.08,0,0,0,0-.09l-.74-.76A0,0,0,0,0,75.19,44.39Z"/><path class="cls-12" d="M77.5,42.93a.11.11,0,0,1-.08,0,.11.11,0,0,1,0-.15l29.28-28.4a.11.11,0,1,1,.15.15L77.57,42.9A.11.11,0,0,1,77.5,42.93Z"/></g><g class="cls-13"><path class="cls-8" d="M159.81,45a7.69,7.69,0,1,1-10.86.3A7.69,7.69,0,0,1,159.81,45Z"/><path class="cls-9" d="M154.53,58.48A7.89,7.89,0,1,1,160.27,56,7.85,7.85,0,0,1,154.53,58.48Zm0-15.37a7.47,7.47,0,1,0,5.14,2A7.44,7.44,0,0,0,154.53,43.11Z"/><g class="cls-11"><path class="cls-8" d="M159.19,55a7.67,7.67,0,0,1-10.38.71,6.33,6.33,0,0,0,.44.46A7.69,7.69,0,1,0,159.81,45a4.72,4.72,0,0,0-.48-.41A7.68,7.68,0,0,1,159.19,55Z"/></g><path class="cls-10" d="M159.81,45c3.09,2.92-7.48,14.09-10.56,11.17A7.69,7.69,0,0,1,159.81,45Z"/><path class="cls-14" d="M157.86,46.35a6,6,0,1,1-8.51.24A6,6,0,0,1,157.86,46.35Z"/><path class="cls-12" d="M149.35,46.59a6,6,0,0,0-1.63,3.87l1.35.72a6,6,0,0,1,8.49-5.08A6,6,0,0,0,149.35,46.59Z"/><path class="cls-12" d="M149.08,52l-1.34-.72a6,6,0,0,0,1.85,3.83,6.14,6.14,0,0,0,1.65,1.11l-.3-.26A6,6,0,0,1,149.08,52Z"/><path class="cls-8" d="M149.4,45.73a.31.31,0,0,1-.44,0L112.21,11a.31.31,0,0,1,.43-.46l36.75,34.77A.31.31,0,0,1,149.4,45.73Z"/><path class="cls-9" d="M149.18,46a.48.48,0,0,1-.36-.15L112.07,11.13a.52.52,0,0,1,0-.74.53.53,0,0,1,.73,0l36.75,34.77a.53.53,0,0,1,0,.74A.55.55,0,0,1,149.18,46ZM112.43,10.65a.1.1,0,0,0-.07.18L149.11,45.6s.08,0,.14,0a.11.11,0,0,0,0-.15L112.5,10.68A.09.09,0,0,0,112.43,10.65Z"/><path class="cls-8" d="M149.58,44.4a.38.38,0,0,1,0,.53l-1,1a.38.38,0,0,1-.53,0h0a.38.38,0,0,1,0-.53l1-1.05a.38.38,0,0,1,.53,0Z"/><path class="cls-9" d="M148.34,46.3a.58.58,0,0,1-.4-.16.59.59,0,0,1,0-.83l1-1a.58.58,0,0,1,.82,0,.57.57,0,0,1,0,.82l-1,1A.62.62,0,0,1,148.34,46.3Zm1-1.8a.13.13,0,0,0-.12.06l-1,1a.15.15,0,0,0,0,.23.18.18,0,0,0,.24,0l1-1a.18.18,0,0,0,0-.24A.21.21,0,0,0,149.33,44.5Z"/><path class="cls-8" d="M148.93,44.18a.28.28,0,0,1,0,.39l-.73.76a.26.26,0,0,1-.38,0h0a.27.27,0,0,1,0-.39l.73-.76a.27.27,0,0,1,.39,0Z"/><path class="cls-9" d="M148,45.63a.51.51,0,0,1-.33-.13.45.45,0,0,1-.15-.34.51.51,0,0,1,.13-.35l.73-.77a.5.5,0,0,1,.68,0,.43.43,0,0,1,.15.34.47.47,0,0,1-.13.34l-.73.77A.51.51,0,0,1,148,45.63Zm.73-1.32a.06.06,0,0,0-.05,0l-.73.77s0,0,0,0a.06.06,0,0,0,0,0s.06,0,.09,0l.73-.77a.06.06,0,0,0,0,0,.06.06,0,0,0,0-.05A0,0,0,0,0,148.74,44.31Z"/><path class="cls-12" d="M146.28,43a.11.11,0,0,1-.07,0L116.58,15a.12.12,0,0,1,0-.15.11.11,0,0,1,.15,0l29.63,28a.1.1,0,0,1,0,.15A.11.11,0,0,1,146.28,43Z"/></g><path class="cls-8" d="M111.71,60.71a.31.31,0,0,1-.31-.31V9.81a.32.32,0,0,1,.63,0V60.4A.31.31,0,0,1,111.71,60.71Z"/><path class="cls-9" d="M111.71,60.92a.52.52,0,0,1-.52-.52V9.81a.52.52,0,0,1,.52-.52.52.52,0,0,1,.52.52V60.4A.52.52,0,0,1,111.71,60.92Zm0-51.21a.1.1,0,0,0-.1.1V60.4c0,.12.21.12.21,0V9.81A.1.1,0,0,0,111.71,9.71Z"/><path class="cls-12" d="M111.62,56.61a.11.11,0,0,1-.1-.11V15.71a.11.11,0,0,1,.1-.1.11.11,0,0,1,.11.1V56.5A.11.11,0,0,1,111.62,56.61Z"/><path class="cls-8" d="M119.4,67.77a7.69,7.69,0,1,1-7.69-7.69A7.69,7.69,0,0,1,119.4,67.77Z"/><path class="cls-9" d="M111.71,75.67a7.9,7.9,0,1,1,7.9-7.9A7.9,7.9,0,0,1,111.71,75.67Zm0-15.38a7.48,7.48,0,1,0,7.48,7.48A7.49,7.49,0,0,0,111.71,60.29Z"/><g class="cls-11"><path class="cls-8" d="M111.71,74.19a7.68,7.68,0,0,1-7.65-7q0,.31,0,.63a7.69,7.69,0,1,0,15.37,0c0-.21,0-.42,0-.63A7.68,7.68,0,0,1,111.71,74.19Z"/></g><path class="cls-10" d="M119.4,67.77C119.4,72,104,72,104,67.77a7.69,7.69,0,1,1,15.37,0Z"/><path class="cls-14" d="M117.08,67.28a6,6,0,1,1-6-6A6,6,0,0,1,117.08,67.28Z"/><path class="cls-12" d="M111.06,61.26a6,6,0,0,0-3.94,1.48c.14.5.28,1,.41,1.48a6,6,0,0,1,3.84-1.39,6,6,0,0,1,5.69,4.06A6,6,0,0,0,111.06,61.26Z"/><path class="cls-12" d="M107,64.77c-.14-.49-.27-1-.41-1.46a6,6,0,0,0-1.5,4,6.06,6.06,0,0,0,.33,2c0-.13,0-.26,0-.39A6,6,0,0,1,107,64.77Z"/><path class="cls-8" d="M112.81,59.92a.38.38,0,0,1-.38.38H111a.38.38,0,0,1-.37-.38h0a.38.38,0,0,1,.37-.37h1.44a.38.38,0,0,1,.38.37Z"/><path class="cls-9" d="M112.43,60.51H111a.59.59,0,0,1,0-1.17h1.44a.59.59,0,1,1,0,1.17ZM111,59.76a.16.16,0,0,0-.16.16.16.16,0,0,0,.16.17h1.44a.17.17,0,0,0,.17-.17.17.17,0,0,0-.17-.16Z"/><path class="cls-8" d="M112.52,59.3a.28.28,0,0,1-.28.27h-1a.28.28,0,0,1-.28-.27h0a.28.28,0,0,1,.28-.28h1a.28.28,0,0,1,.28.28Z"/><path class="cls-9" d="M112.24,59.78h-1a.48.48,0,0,1-.49-.48.49.49,0,0,1,.49-.49h1a.49.49,0,0,1,.49.49A.48.48,0,0,1,112.24,59.78Zm-1-.55a.07.07,0,0,0-.07.07.07.07,0,0,0,.07.06h1a.07.07,0,0,0,.07-.06.07.07,0,0,0-.07-.07Z"/><path class="cls-8" d="M111.71,9.81a.54.54,0,0,1-.54.55h0a.54.54,0,0,1-.55-.55V6.35a.54.54,0,0,1,.55-.55h0a.54.54,0,0,1,.54.55Z"/><path class="cls-9" d="M111.17,10.57a.76.76,0,0,1-.76-.76V6.35a.76.76,0,1,1,1.51,0V9.81A.76.76,0,0,1,111.17,10.57Zm0-4.56a.34.34,0,0,0-.34.34V9.81a.34.34,0,0,0,.34.34.34.34,0,0,0,.34-.34V6.35A.34.34,0,0,0,111.17,6Z"/><path class="cls-8" d="M112.81,9.81a.55.55,0,0,1-.55.55h0a.55.55,0,0,1-.55-.55V6.35a.55.55,0,0,1,.55-.55h0a.55.55,0,0,1,.55.55Z"/><path class="cls-9" d="M112.26,10.57a.76.76,0,0,1-.75-.76V6.35a.76.76,0,1,1,1.51,0V9.81A.76.76,0,0,1,112.26,10.57Zm0-4.56a.34.34,0,0,0-.34.34V9.81a.34.34,0,0,0,.34.34.34.34,0,0,0,.34-.34V6.35A.34.34,0,0,0,112.26,6Z"/><path class="cls-12" d="M111.09,7.86A5.91,5.91,0,0,0,111,6.53s0,0,0,0a13,13,0,0,0-.07,3.06c0,.11.17-.09.17-.14C111.11,8.94,111.09,8.4,111.09,7.86Z"/><path class="cls-12" d="M112.3,7.86a5.38,5.38,0,0,0-.07-1.33s0,0,0,0a12.52,12.52,0,0,0-.07,3.06c0,.11.17-.09.17-.14C112.33,8.94,112.31,8.4,112.3,7.86Z"/><path class="cls-15" d="M101.79,63.84,99.2,61.1l-.51,1.37C88.27,59.35,78.86,51.91,78.76,51.83a.22.22,0,0,0-.3,0,.21.21,0,0,0,0,.29c.1.09,9.55,7.56,20,10.71l-.46,1.23Z"/><path class="cls-15" d="M145.58,53.91l-3.75.39.78,1.23c-8.8,6.4-20.43,9.37-20.55,9.39a.22.22,0,0,0-.15.26.21.21,0,0,0,.25.15c.13,0,11.8-3,20.68-9.44l.7,1.11Z"/><path class="cls-15" d="M120.71,72.08l3.41-3.16.5,1.73c13-3,25.19-11.31,25.32-11.4a.25.25,0,0,1,.35.07.26.26,0,0,1-.06.36c-.13.09-12.34,8.47-25.47,11.47l.46,1.54Z"/><path class="cls-15" d="M75.77,56.68l3.91.6-.89,1.26c8.86,7.14,20.85,10.85,21,10.89a.22.22,0,0,1-.13.42c-.13,0-12.17-3.77-21.1-11L77.74,60Z"/></g></g></svg>